# This file uses centimeters as units for non-parametric coordinates.

mtllib blackBoard_v2.mtl
g default
v -39.498014 -20.342058 0.502344
v 54.513636 -20.342058 0.502344
v 54.513636 23.703426 0.502344
v -39.498014 23.703426 0.502344
v 49.579927 -21.644590 1.850755
v 49.579927 -21.644590 2.817231
v 49.579927 -21.816095 2.065817
v 49.579927 -21.877304 2.333993
v 49.579927 -21.816095 2.602170
v -34.564306 -21.644590 2.817231
v -34.564306 -21.816095 2.602170
v -34.564306 -21.877304 2.333993
v -34.564306 -21.816095 2.065817
v -34.564306 -21.644590 1.850755
v -40.655684 24.708307 -0.284495
v -40.501646 24.772114 -0.284495
v -40.501646 24.708307 -0.438537
v -40.501646 24.554266 -0.502343
v -40.655684 24.554266 -0.438537
v -40.719488 24.554266 -0.284495
v 55.671305 24.708307 -0.284495
v 55.735109 24.554266 -0.284495
v 55.671305 24.554266 -0.438537
v 55.517260 24.554266 -0.502343
v 55.517260 24.708307 -0.438537
v 55.517260 24.772114 -0.284495
v 55.517260 -21.410734 -0.502343
v 55.671305 -21.410734 -0.438537
v 55.735109 -21.410736 -0.284495
v -40.501646 -21.410734 -0.502343
v -40.655684 -21.410734 -0.438537
v -40.719488 -21.410736 -0.284495
v 49.579927 -21.628593 2.333993
v 49.643732 -21.474552 2.333993
v 49.797770 -21.410746 2.333993
v 49.579927 -21.597803 1.828224
v 49.643839 -21.462677 1.712348
v 49.810152 -21.410746 1.555152
v 49.810152 -21.410746 3.112834
v 49.643839 -21.462677 2.955639
v 49.579927 -21.597803 2.839763
v 55.735109 -21.628593 1.121831
v 55.671305 -21.474552 1.275872
v 55.517260 -21.410746 1.339679
v 55.671305 24.554266 1.275870
v 55.735109 24.554266 1.121828
v 55.671305 24.708307 1.121828
v 55.517260 24.772114 1.121828
v 55.517260 24.708307 1.275870
v 55.517260 24.554266 1.339676
v 54.731485 23.921274 1.339678
v 54.577440 23.767233 1.275873
v 54.513636 23.703426 1.121831
v -39.498014 23.703426 1.121831
v -39.561827 23.767233 1.275873
v -39.715864 23.921274 1.339678
v -40.655684 24.554266 1.275870
v -40.501646 24.554266 1.339676
v -40.501646 24.708307 1.275870
v -40.501646 24.772114 1.121828
v -40.655684 24.708307 1.121828
v -40.719488 24.554266 1.121828
v 55.735109 -22.973978 1.339677
v 55.671305 -23.128019 1.339677
v 55.517260 -23.191826 1.339677
v 55.517260 -23.128019 -0.438537
v 55.517260 -22.973978 -0.502343
v 55.671305 -22.973978 -0.438537
v 55.735109 -22.973978 -0.284495
v 55.671305 -23.128019 -0.284495
v 55.517260 -23.191826 -0.284495
v 55.517260 -21.474552 3.813084
v 55.517260 -21.628593 3.876890
v 55.671297 -21.628593 3.813084
v 55.735109 -21.628593 3.659042
v 55.671297 -21.474552 3.659043
v 55.517260 -21.410746 3.659043
v 55.517260 -23.128019 3.813082
v 55.517260 -23.191826 3.659041
v 55.671305 -23.128019 3.659041
v 55.735109 -22.973978 3.659041
v 55.671305 -22.973978 3.813083
v 55.517260 -22.973978 3.876889
v 54.731485 -20.559906 1.339679
v 54.577440 -20.405865 1.275873
v 54.513636 -20.342058 1.121831
v -34.564306 -21.592747 1.825788
v -34.626501 -21.461273 1.713043
v -34.788321 -21.410746 1.560091
v -34.564306 -21.597803 2.839763
v -34.628225 -21.462677 2.955639
v -34.794531 -21.410746 3.112834
v -40.655684 -23.128019 3.659041
v -40.501646 -23.191826 3.659041
v -40.501646 -23.128019 3.813082
v -40.501646 -22.973978 3.876889
v -40.655684 -22.973978 3.813083
v -40.719488 -22.973978 3.659041
v -40.655684 -21.474552 3.659043
v -40.719488 -21.628593 3.659042
v -40.655684 -21.628593 3.813084
v -40.501646 -21.628593 3.876890
v -40.501646 -21.474552 3.813084
v -40.501646 -21.410746 3.659043
v -39.715864 -20.559906 1.339679
v -39.561827 -20.405865 1.275873
v -39.498014 -20.342058 1.121831
v -40.719488 -21.628593 1.121831
v -40.655684 -21.474552 1.275872
v -40.501646 -21.410746 1.339679
v -40.501646 -23.191826 1.339677
v -40.655684 -23.128019 1.339677
v -40.719488 -22.973978 1.339677
v -40.655684 -23.128019 -0.284495
v -40.719488 -22.973978 -0.284495
v -40.655684 -22.973978 -0.438537
v -40.501646 -22.973978 -0.502343
v -40.501646 -23.128019 -0.438537
v -40.501646 -23.191826 -0.284495
v -34.564306 -21.628593 2.333994
v -34.628111 -21.474552 2.333994
v -34.782156 -21.410746 2.333994
v -40.627371 24.679996 -0.410226
v 55.642992 24.679996 -0.410226
v 55.642992 24.679996 1.247559
v -40.627371 24.679996 1.247559
v 55.642992 -23.099709 -0.410226
v 55.642992 -21.502863 3.784773
v 55.642992 -23.099709 3.784771
v -40.627371 -23.099709 3.784771
v -40.627371 -21.502863 3.784773
v -40.627371 -23.099709 -0.410226
vt 0.458620 0.882585
vt 0.459871 0.882585
vt 0.459874 0.894002
vt 0.458623 0.894003
vt 0.459871 0.881334
vt 0.458850 0.881564
vt 0.833045 0.882489
vt 0.834816 0.893906
vt 0.459874 0.895253
vt 0.458853 0.895023
vt 0.833045 0.881239
vt 0.845736 0.882486
vt 0.845740 0.895672
vt 0.833566 0.895157
vt 0.845736 0.881235
vt 0.846990 0.895672
vt 0.846987 0.882486
vt 0.845745 0.914502
vt 0.834822 0.914505
vt 0.833571 0.914505
vt 0.846757 0.881465
vt 0.846995 0.914502
vt 0.845745 0.915753
vt 0.834822 0.915756
vt 0.833801 0.915526
vt 0.846766 0.915523
vt 0.458113 0.871673
vt 0.456863 0.871673
vt 0.456860 0.860256
vt 0.458110 0.860255
vt 0.458114 0.872923
vt 0.457093 0.872694
vt 0.458110 0.859005
vt 0.457089 0.859235
vt 0.833053 0.860159
vt 0.831287 0.871577
vt 0.831288 0.872828
vt 0.831802 0.858909
vt 0.843975 0.858388
vt 0.843979 0.871574
vt 0.843979 0.872825
vt 0.831797 0.839561
vt 0.833048 0.839561
vt 0.843971 0.839558
vt 0.845226 0.858388
vt 0.845229 0.871574
vt 0.845000 0.872595
vt 0.833048 0.838310
vt 0.832027 0.838540
vt 0.843970 0.838307
vt 0.845221 0.839557
vt 0.844991 0.838537
vt 0.028013 0.873719
vt 0.028016 0.874970
vt 0.023909 0.874728
vt 0.022966 0.873633
vt 0.033060 0.873612
vt 0.032121 0.874711
vt 0.024093 0.875108
vt 0.031939 0.875091
vt 0.025842 0.876496
vt 0.030196 0.876487
vt 0.028020 0.876989
vt 0.381024 0.849724
vt 0.023434 0.850490
vt 0.023424 0.845461
vt 0.381013 0.844695
vt 0.381528 0.843444
vt 0.022903 0.844211
vt 0.028035 0.886778
vt 0.032141 0.886520
vt 0.031959 0.886900
vt 0.033079 0.885420
vt 0.028032 0.885528
vt 0.030216 0.888296
vt 0.023909 0.886496
vt 0.022991 0.885431
vt 0.028040 0.888798
vt 0.024112 0.886916
vt 0.025862 0.888305
vt 0.023453 0.858921
vt 0.381042 0.858155
vt 0.381052 0.863185
vt 0.023463 0.863951
vt 0.381573 0.864435
vt 0.022948 0.865202
vt 0.959326 0.727423
vt 0.959326 0.044285
vt 0.961503 0.044285
vt 0.961503 0.727423
vt 0.957580 0.727423
vt 0.957580 0.044285
vt 0.963681 0.044285
vt 0.963681 0.727423
vt 0.965427 0.044285
vt 0.965427 0.727423
vt 0.028122 0.825080
vt 0.028122 0.826331
vt 0.016704 0.826331
vt 0.016704 0.825080
vt 0.029372 0.825080
vt 0.029143 0.826101
vt 0.015454 0.825080
vt 0.015684 0.826101
vt 0.028122 0.045535
vt 0.016704 0.045535
vt 0.029372 0.045535
vt 0.015454 0.045535
vt 0.028122 0.044285
vt 0.016704 0.044285
vt 0.029143 0.044515
vt 0.015684 0.044515
vt 0.450897 0.091970
vt 0.450897 0.093220
vt 0.445850 0.093219
vt 0.444573 0.091869
vt 0.457220 0.091869
vt 0.455944 0.093219
vt 0.445850 0.777396
vt 0.444573 0.778746
vt 0.440139 0.045535
vt 0.458969 0.045535
vt 0.457180 0.778695
vt 0.455938 0.777382
vt 0.446790 0.093738
vt 0.446790 0.776877
vt 0.450897 0.777395
vt 0.450897 0.778645
vt 0.440139 0.825080
vt 0.458969 0.825080
vt 0.455003 0.093738
vt 0.455023 0.776877
vt 0.438888 0.045535
vt 0.438888 0.825080
vt 0.459487 0.044285
vt 0.440139 0.044285
vt 0.439118 0.044515
vt 0.440139 0.826331
vt 0.439118 0.826101
vt 0.459487 0.826331
vt 0.928685 0.044803
vt 0.929935 0.044285
vt 0.929935 0.808569
vt 0.928685 0.808051
vt 0.923655 0.808051
vt 0.923655 0.044803
vt 0.868457 0.045535
vt 0.868457 0.044285
vt 0.887287 0.044285
vt 0.887287 0.045535
vt 0.855271 0.045535
vt 0.855271 0.044285
vt 0.888538 0.045535
vt 0.888308 0.044515
vt 0.868457 0.825080
vt 0.887287 0.825080
vt 0.855271 0.825080
vt 0.854020 0.045535
vt 0.854250 0.044515
vt 0.888538 0.825080
vt 0.887287 0.826331
vt 0.868457 0.826331
vt 0.855271 0.826331
vt 0.854020 0.825080
vt 0.888308 0.826101
vt 0.854250 0.826101
vt 0.946005 0.044803
vt 0.946005 0.808051
vt 0.940975 0.808051
vt 0.940975 0.044803
vt 0.939725 0.044285
vt 0.939725 0.808569
vt 0.482405 0.806420
vt 0.482405 0.064987
vt 0.829774 0.064987
vt 0.829774 0.806420
vt 0.041077 0.825080
vt 0.039826 0.825080
vt 0.039826 0.045535
vt 0.041077 0.045535
vt 0.041077 0.826331
vt 0.040056 0.826101
vt 0.041077 0.044285
vt 0.040056 0.044515
vt 0.414251 0.045535
vt 0.414251 0.825080
vt 0.414251 0.826331
vt 0.414251 0.044285
vt 0.426943 0.045535
vt 0.426943 0.825080
vt 0.426943 0.826331
vt 0.426943 0.044285
vt 0.428193 0.045535
vt 0.428193 0.825080
vt 0.427963 0.826101
vt 0.427963 0.044515
vt 0.468867 0.045535
vt 0.468349 0.044285
vt 0.842041 0.044285
vt 0.842041 0.045535
vt 0.843292 0.045535
vt 0.843062 0.044515
vt 0.475775 0.051915
vt 0.836903 0.051915
vt 0.843292 0.825080
vt 0.842041 0.825080
vt 0.468867 0.825080
vt 0.475775 0.818700
vt 0.836903 0.818700
vt 0.835652 0.053165
vt 0.477026 0.053165
vt 0.842041 0.826331
vt 0.843062 0.826101
vt 0.477026 0.817450
vt 0.835652 0.817450
vt 0.468349 0.826331
vt 0.911724 0.045535
vt 0.912974 0.045535
vt 0.912974 0.825080
vt 0.911724 0.825080
vt 0.911724 0.044285
vt 0.912745 0.044515
vt 0.911724 0.826331
vt 0.912745 0.826101
vt 0.900801 0.825080
vt 0.900801 0.045535
vt 0.900801 0.044285
vt 0.900801 0.826331
vt 0.899551 0.045535
vt 0.899551 0.825080
vt 0.899781 0.044515
vt 0.899781 0.826101
vt 0.976328 0.727423
vt 0.976328 0.044285
vt 0.976708 0.044285
vt 0.976708 0.727423
vt 0.987421 0.044285
vt 0.987462 0.727423
vt 0.987041 0.727423
vt 0.987041 0.044285
vn 0.000000 0.000000 1.000000
vn 0.000000 0.000000 1.000000
vn 0.000000 0.000000 1.000000
vn 0.000000 0.000000 1.000000
vn 0.000000 0.736384 -0.676564
vn 0.000000 0.736384 -0.676564
vn 0.000000 0.900970 -0.433882
vn 0.000000 0.900970 -0.433882
vn 0.000000 1.000000 0.000000
vn 0.000000 1.000000 0.000000
vn 0.000000 0.900970 0.433882
vn 0.000000 0.900970 0.433882
vn -0.000000 0.734222 0.678909
vn -0.000000 0.734222 0.678909
vn -0.000640 0.999166 -0.040837
vn -0.379671 0.924759 -0.025899
vn -0.379671 0.924759 0.025899
vn -0.000640 0.999166 0.040837
vn -0.924755 0.379680 -0.025899
vn -0.999170 0.001333 -0.040726
vn -0.999165 0.001332 0.040838
vn -0.924756 0.379679 0.025899
vn -0.000663 0.001383 -0.999999
vn -0.000410 0.382641 -0.923897
vn 0.000410 0.382641 -0.923897
vn 0.000663 0.001383 -0.999999
vn -0.000410 0.923896 -0.382644
vn 0.000640 0.999166 -0.040837
vn 0.000410 0.923896 -0.382644
vn 0.999170 0.001332 -0.040726
vn 0.924776 0.379629 -0.025900
vn 0.924776 0.379629 0.025900
vn 0.999165 0.001332 0.040838
vn 0.379649 0.924768 -0.025899
vn 0.000640 0.999166 0.040837
vn 0.379649 0.924768 0.025899
vn 0.382581 0.000855 -0.923922
vn 0.382676 0.000000 -0.923883
vn 0.000663 0.000000 -1.000000
vn 0.923922 0.000855 -0.382580
vn 0.999290 0.000000 -0.037675
vn 0.923883 0.000000 -0.382676
vn -0.999290 -0.000000 -0.037675
vn -0.923883 0.000000 -0.382676
vn -0.924709 -0.023478 -0.379950
vn -0.998400 -0.040693 -0.039256
vn -0.382692 0.000000 -0.923876
vn -0.000663 0.000000 -1.000000
vn -0.000642 -0.037110 -0.999311
vn -0.379966 -0.023478 -0.924703
vn -0.014077 0.999901 0.000000
vn -0.337640 0.941276 0.000001
vn -0.002786 0.950272 -0.311408
vn -0.000200 0.999782 -0.020874
vn -0.912451 0.409186 0.000000
vn -0.956881 0.290480 0.000000
vn -0.921719 0.387584 -0.014585
vn -0.912343 0.409138 -0.015396
vn 0.052998 -0.000000 0.998595
vn 0.382677 0.000000 0.923882
vn 0.382582 0.000854 0.923921
vn 0.042970 0.089599 0.995051
vn 0.923883 0.000000 0.382676
vn 0.999741 0.001213 0.022731
vn 0.923922 0.000852 0.382581
vn 0.000410 0.382641 0.923897
vn -0.000410 0.382642 0.923897
vn -0.042970 0.089599 0.995051
vn 0.000410 0.923896 0.382643
vn -0.000410 0.923896 0.382643
vn 0.000000 -0.995306 0.096773
vn 0.000000 -0.923877 0.382688
vn 0.000000 -0.923877 0.382689
vn 0.000000 -0.995306 0.096774
vn 0.000000 -0.382681 0.923881
vn -0.009481 -0.020166 0.999752
vn 0.009480 -0.020166 0.999752
vn 0.000000 -0.382681 0.923881
vn 0.000663 -1.000000 0.000000
vn 0.382678 -0.923882 0.000000
vn 0.380816 -0.924509 0.016186
vn 0.000649 -0.999668 0.025775
vn 0.923878 -0.382688 0.000000
vn 0.999171 -0.040705 0.000000
vn 0.998910 -0.040073 0.023948
vn 0.924500 -0.380838 0.016187
vn 0.000642 -0.037110 -0.999311
vn 0.000410 -0.382641 -0.923897
vn -0.000410 -0.382641 -0.923897
vn 0.000410 -0.923896 -0.382644
vn 0.000643 -0.999357 -0.035841
vn -0.000643 -0.999357 -0.035841
vn -0.000410 -0.923896 -0.382644
vn 0.000639 0.042492 0.999097
vn 0.000410 0.382635 0.923900
vn -0.000410 0.382635 0.923900
vn -0.000639 0.042492 0.999097
vn 0.000410 0.923901 0.382631
vn 0.006310 0.968910 0.247331
vn -0.006310 0.968910 0.247332
vn -0.000410 0.923901 0.382631
vn 0.998827 0.042170 0.023812
vn 0.924781 0.026980 0.379542
vn 0.924781 -0.026978 0.379543
vn 0.379533 0.026979 0.924785
vn 0.000639 -0.042495 0.999096
vn 0.379533 -0.026980 0.924785
vn 0.000410 -0.923896 0.382644
vn -0.000410 -0.923896 0.382644
vn -0.000649 -0.999668 0.025775
vn 0.000410 -0.382642 0.923897
vn -0.000639 -0.042495 0.999096
vn -0.000410 -0.382642 0.923897
vn -0.380830 -0.924503 0.016186
vn -0.382686 -0.923879 0.000000
vn -0.000663 -1.000000 0.000000
vn -0.924520 -0.380790 0.016187
vn -0.998910 -0.040071 0.023947
vn -0.999171 -0.040704 0.000000
vn -0.923894 -0.382649 0.000000
vn -0.924788 -0.026980 0.379525
vn -0.924788 0.026978 0.379525
vn -0.998827 0.042166 0.023811
vn -0.379542 -0.026981 0.924781
vn -0.379542 0.026978 0.924781
vn -0.924477 0.380930 0.015301
vn -0.923880 0.382683 0.000000
vn -0.999741 0.001213 0.022731
vn -0.380869 0.924491 0.015978
vn -0.026322 0.999654 -0.000000
vn -0.382702 0.923872 0.000000
vn -0.921718 0.387586 0.014586
vn -1.000000 0.000000 0.000000
vn -1.000000 -0.000016 0.000000
vn -1.000000 0.000000 0.000000
vn -1.000000 0.000000 0.000000
vn -1.000000 0.000000 0.000000
vn -0.008031 0.017084 0.999822
vn 0.000000 -1.000000 0.000000
vn 0.000000 -1.000000 0.000000
vn 0.998400 -0.040693 -0.039256
vn -1.000000 0.000000 0.000000
vn -1.000000 0.000000 0.000000
vn -0.995301 0.000000 0.096826
vn -0.995301 0.000000 0.096826
vn 0.026352 0.999653 -0.000000
vn 0.000437 0.998981 0.045133
vn -0.000435 0.998983 0.045092
vn 0.000000 0.612298 -0.790627
vn 0.000000 0.612298 -0.790627
vn 0.000000 1.000000 0.000000
vn 0.000000 1.000000 0.000000
vn 0.000000 0.995306 0.096774
vn 0.000000 0.995307 0.096773
vn -0.052999 -0.000000 0.998595
vn 0.008031 0.017085 0.999822
vn 0.000014 0.610133 0.792299
vn 0.000014 0.610139 0.792295
vn 0.957081 0.289820 0.001211
vn 0.921718 0.387586 -0.014580
vn 1.000000 0.000013 0.000000
vn 0.922242 0.386194 0.018025
vn 1.000000 0.000021 0.000000
vn 1.000000 0.000000 0.000000
vn 1.000000 0.000000 0.000000
vn 0.995300 -0.000000 0.096837
vn 0.995300 -0.000000 0.096837
vn 1.000000 0.000013 0.000000
vn 1.000000 -0.000021 0.000000
vn 1.000000 -0.000007 0.000000
vn 0.000200 0.999782 -0.020875
vn 0.013924 0.999903 0.000056
vn 0.379950 -0.023478 -0.924709
vn 0.924709 -0.023478 -0.379950
vn -0.923922 0.000855 -0.382580
vn -0.382597 0.000855 -0.923915
vn -0.912343 0.409137 0.015397
vn -0.002806 0.950286 0.311366
vn 0.000017 0.650965 0.759108
vn 0.000017 0.650965 0.759108
vn 0.002792 0.950267 0.311424
vn 0.923880 0.382683 0.000002
vn 0.924477 0.380931 0.015303
vn 0.382695 0.923875 0.000001
vn 0.380862 0.924494 0.015978
vn -0.382676 0.000000 0.923883
vn -0.382676 0.000000 0.923883
vn -0.923883 0.000000 0.382676
vn -0.923883 0.000000 0.382676
vn 0.924688 -0.380051 -0.022656
vn 0.380057 -0.924686 -0.022656
vn 0.000000 0.382685 0.923879
vn 0.000000 0.382685 0.923879
vn 0.000000 0.923877 0.382689
vn 0.000000 0.923877 0.382689
vn 0.911892 0.409985 0.019136
vn 0.912255 0.409620 0.001768
vn 0.337310 0.941393 0.001399
vn 0.002786 0.950272 -0.311408
vn 0.000000 0.650965 -0.759108
vn 0.000000 0.650965 -0.759108
vn 0.923866 -0.000000 0.382715
vn 0.923866 -0.000000 0.382715
vn 0.382692 0.000000 0.923876
vn 0.382692 0.000000 0.923876
vn -0.382598 0.000854 0.923915
vn -0.382693 0.000000 0.923876
vn -0.923922 0.000852 0.382581
vn -0.923883 0.000000 0.382676
vn -0.380058 -0.924685 -0.022655
vn -0.924698 -0.380028 -0.022656
vn 0.912343 0.409138 -0.015391
vn -0.887921 0.325261 -0.325272
vn -0.325277 0.887915 -0.325273
vn -0.325277 0.325268 -0.887917
vn 0.325264 0.887916 -0.325281
vn 0.887919 0.325266 -0.325272
vn 0.325264 0.325272 -0.887920
vn 0.325263 0.325270 0.887921
vn 0.887918 0.325271 0.325271
vn 0.325263 0.887917 0.325280
vn -0.887926 0.325246 0.325274
vn -0.325278 0.325275 0.887914
vn -0.325280 0.887912 0.325276
vn 0.325263 -0.887920 -0.325272
vn 0.325262 -0.325270 -0.887921
vn 0.887917 -0.325271 -0.325273
vn 0.325272 0.887921 0.325262
vn 0.325269 0.325262 0.887922
vn 0.887917 0.325276 0.325268
vn 0.325262 -0.325270 0.887921
vn 0.325264 -0.887920 0.325272
vn 0.887918 -0.325266 0.325274
vn -0.887921 -0.325256 0.325275
vn -0.325278 -0.887917 0.325266
vn -0.325279 -0.325276 0.887913
vn -0.325280 0.887912 0.325276
vn -0.887920 0.325266 0.325269
vn -0.325279 0.325272 0.887914
vn -0.325282 -0.887916 -0.325266
vn -0.887918 -0.325266 -0.325274
vn -0.325280 -0.325271 -0.887914
s off
g blackBoard
usemtl lambert5SG
f 1/173/1 2/174/2 3/175/3 4/176/4
s 1
f 10/91/5 6/92/6 9/88/7 11/87/8
f 11/87/8 9/88/7 8/89/9 12/90/10
f 12/90/10 8/89/9 7/93/11 13/94/12
f 13/94/12 7/93/11 5/95/13 14/96/14
s 2
f 16/97/15 15/98/16 61/99/17 60/100/18
s 3
f 15/1/19 20/2/20 62/3/21 61/4/22
s 4
f 18/177/23 17/178/24 25/179/25 24/180/26
s 2
f 17/101/27 16/97/15 26/105/28 25/107/29
s 5
f 22/27/30 21/28/31 47/29/32 46/30/33
s 2
f 21/109/34 26/105/28 48/106/35 47/110/36
s 4
f 24/180/26 23/183/37 28/188/38 27/185/39
s 5
f 23/31/40 22/27/30 29/36/41 28/37/42
s 3
f 32/7/43 31/11/44 116/15/45 115/12/46
s 4
f 31/187/47 30/186/48 117/190/49 116/191/50
s 8
f 35/113/51 34/114/52 40/115/53 39/116/54
s 9
f 34/53/55 33/54/56 41/55/57 40/56/58
s 10
f 44/197/59 43/198/60 45/199/61 50/200/62
s 5
f 43/38/63 42/35/64 46/30/33 45/33/65
s 10
f 50/200/62 49/201/66 59/205/67 58/206/68
s 2
f 49/108/69 48/106/35 60/100/18 59/103/70
s 11
f 53/141/71 52/142/72 55/143/73 54/144/74
s 10
f 52/210/75 51/204/76 56/209/77 55/215/78
s 12
f 65/147/79 64/148/80 80/149/81 79/150/82
s 5
f 64/45/83 63/39/84 81/44/85 80/51/86
s 4
f 67/189/87 66/193/88 118/194/89 117/190/49
s 12
f 66/158/90 71/151/91 119/157/92 118/164/93
s 16
f 73/217/94 72/218/95 103/219/96 102/220/97
s 8
f 72/133/98 77/121/99 104/129/100 103/134/101
s 5
f 75/43/102 74/48/103 82/50/104 81/44/85
s 16
f 74/221/105 73/217/94 83/226/106 82/227/107
s 12
f 79/150/82 78/153/108 95/160/109 94/156/110
s 16
f 78/229/111 83/226/106 96/225/112 95/230/113
s 12
f 94/156/110 93/161/114 112/162/115 111/155/116
s 3
f 93/22/117 98/18/118 113/13/119 112/16/120
f 98/18/118 97/23/121 101/24/122 100/19/123
s 16
f 97/228/124 96/225/112 102/220/97 101/223/125
s 3
f 100/19/123 99/20/126 109/14/127 108/8/128
s 8
f 99/138/129 104/129/100 110/130/130 109/140/131
s 4
f 18/177/23 24/180/26 27/185/39 30/186/48
s 9
f 33/54/56 36/58/132 5/60/133
f 41/55/57 33/54/56 6/59/134
f 33/54/56 5/60/133 7/62/135
f 33/54/56 7/62/135 8/63/136
f 33/54/56 8/63/136 9/61/137
f 33/54/56 9/61/137 6/59/134
s 10
f 84/203/138 44/197/59 50/200/62 51/204/76
s 11
f 4/145/139 3/146/140 53/141/71 54/144/74
s 2
f 26/105/28 16/97/15 60/100/18 48/106/35
s 5
f 29/36/41 42/35/64 63/39/84 69/40/141
s 10
f 50/200/62 58/206/68 56/209/77 51/204/76
s 5
f 63/39/84 42/35/64 75/43/102 81/44/85
s 20
f 3/64/142 2/65/143 86/66/144 53/67/145
s 5
f 22/27/30 46/30/33 42/35/64 29/36/41
s 8
f 44/122/146 110/130/130 89/123/147 38/117/148
s 1
f 90/233/149 41/234/150 6/235/6 10/236/5
s 16
f 96/225/112 83/226/106 73/217/94 102/220/97
s 22
f 2/167/151 1/168/152 107/169/153 86/170/154
s 10
f 110/207/155 44/197/59 84/203/138 105/208/156
s 1
f 36/237/157 87/238/158 14/239/14 5/240/13
s 10
f 56/209/77 58/206/68 110/207/155 105/208/156
s 12
f 111/155/116 65/147/79 79/150/82 94/156/110
s 4
f 30/186/48 27/185/39 67/189/87 117/190/49
s 12
f 71/151/91 65/147/79 111/155/116 119/157/92
s 23
f 120/70/159 90/71/160 10/72/161
f 87/76/162 120/70/159 14/79/163
s 25
f 1/81/164 4/82/165 54/83/166 107/84/167
s 3
f 20/2/20 32/7/43 108/8/128 62/3/21
s 23
f 120/70/159 10/72/161 11/75/168
f 120/70/159 11/75/168 12/78/169
f 120/70/159 12/78/169 13/80/170
f 120/70/159 13/80/170 14/79/163
s 3
f 108/8/128 113/13/119 98/18/118 100/19/123
f 32/7/43 115/12/46 113/13/119 108/8/128
s 8
f 39/116/54 92/120/171 104/129/100 77/121/99
f 110/130/130 122/128/172 89/123/147
f 104/129/100 122/128/172 110/130/130
f 104/129/100 92/120/171 122/128/172
f 77/121/99 35/113/51 39/116/54
f 44/122/146 35/113/51 77/121/99
f 44/122/146 38/117/148 35/113/51
s 4
f 27/185/39 28/188/38 68/192/173 67/189/87
s 5
f 28/37/42 29/36/41 69/40/141 68/41/174
s 3
f 20/2/20 19/5/175 31/11/44 32/7/43
s 4
f 19/181/176 18/177/23 30/186/48 31/187/47
s 9
f 33/54/56 34/53/55 37/57/177 36/58/132
s 8
f 34/114/52 35/113/51 38/117/148 37/118/178
s 1
f 36/131/157 37/118/179 88/124/180 87/132/158
s 8
f 37/118/178 38/117/148 89/123/147 88/124/181
s 5
f 42/35/64 43/38/182 76/42/183 75/43/102
s 8
f 43/135/184 44/122/146 77/121/99 76/136/185
s 10
f 51/204/76 52/210/186 85/211/187 84/203/138
s 20
f 52/68/188 53/67/145 86/66/144 85/69/189
s 5
f 63/39/84 64/45/83 70/46/190 69/40/141
s 12
f 64/148/80 65/147/79 71/151/91 70/152/191
s 10
f 84/203/138 85/211/192 106/214/193 105/208/156
s 22
f 85/171/194 86/170/154 107/169/153 106/172/195
s 23
f 87/76/162 88/77/196 121/74/197 120/70/159
s 8
f 88/124/181 89/123/147 122/128/172 121/127/198
f 39/116/54 40/115/53 91/119/199 92/120/171
s 1
f 40/115/200 41/125/150 90/126/149 91/119/201
s 25
f 54/83/166 55/85/202 106/86/203 107/84/167
s 10
f 55/215/204 56/209/77 105/208/156 106/214/205
f 58/206/68 57/212/206 109/216/207 110/207/155
s 3
f 57/9/208 62/3/21 108/8/128 109/14/209
s 12
f 111/155/116 112/162/115 114/163/210 119/157/92
s 3
f 112/16/120 113/13/119 115/12/46 114/17/211
s 8
f 92/120/171 91/119/199 121/127/198 122/128/172
s 23
f 91/73/212 90/71/160 120/70/159 121/74/197
s 3
f 19/5/175 20/2/20 15/1/19 123/6/213
s 2
f 15/98/16 16/97/15 17/101/27 123/102/214
s 4
f 17/178/24 18/177/23 19/181/176 123/182/215
s 2
f 25/107/29 26/105/28 21/109/34 124/111/216
s 5
f 21/28/31 22/27/30 23/31/40 124/32/217
s 4
f 23/183/37 24/180/26 25/179/25 124/184/218
s 10
f 49/201/66 50/200/62 45/199/61 125/202/219
s 5
f 45/33/65 46/30/33 47/29/32 125/34/220
s 2
f 47/110/36 48/106/35 49/108/69 125/112/221
s 3
f 61/4/22 62/3/21 57/9/208 126/10/222
s 10
f 57/212/206 58/206/68 59/205/67 126/213/223
s 2
f 59/103/70 60/100/18 61/99/17 126/104/224
s 12
f 70/152/191 71/151/91 66/158/90 127/159/225
s 4
f 66/193/88 67/189/87 68/192/173 127/196/226
s 5
f 68/41/174 69/40/141 70/46/190 127/47/227
s 8
f 76/136/185 77/121/99 72/133/98 128/137/228
s 16
f 72/218/95 73/217/94 74/221/105 128/222/229
s 5
f 74/48/103 75/43/102 76/42/183 128/49/230
s 16
f 82/227/107 83/226/106 78/229/111 129/231/231
s 12
f 78/153/108 79/150/82 80/149/81 129/154/232
s 5
f 80/51/86 81/44/85 82/50/104 129/52/233
s 3
f 97/23/121 98/18/118 93/22/117 130/26/234
s 12
f 93/161/114 94/156/110 95/160/109 130/165/235
s 16
f 95/230/113 96/225/112 97/228/124 130/232/236
s 8
f 103/134/101 104/129/100 99/138/129 131/139/237
s 3
f 99/20/126 100/19/123 101/24/122 131/25/238
s 16
f 101/223/125 102/220/97 103/219/96 131/224/239
s 12
f 118/164/93 119/157/92 114/163/210 132/166/240
s 3
f 114/17/211 115/12/46 116/15/45 132/21/241
s 4
f 116/191/50 117/190/49 118/194/89 132/195/242
