# This file uses centimeters as units for non-parametric coordinates.

mtllib WallPattern.mtl
g default
v 0.000000 0.634461 -0.000000
v 0.000000 1.674607 -0.000000
v -0.000000 1.820618 0.091100
v -0.000000 1.674607 0.091100
v -1.611718 1.820618 0.091100
v -0.402930 1.820618 0.091100
v -1.611718 1.674607 0.091100
v -0.402930 1.674607 0.091100
v -1.611718 0.010970 0.091100
v -1.611718 0.634461 0.091100
v -0.402930 0.010970 0.091100
v -0.402930 0.634461 0.091100
v 0.000000 0.010970 0.091100
v 0.000000 0.634461 0.091100
v 0.000000 0.597507 0.091100
v -0.402930 0.597507 0.091100
v -1.611718 0.597507 0.091100
v 0.000000 0.597507 0.114427
v -0.402930 0.597507 0.114427
v -0.402930 0.010970 0.114427
v 0.000000 0.010970 0.114427
v -0.402930 1.674607 0.114427
v -0.000000 1.674607 0.114427
v -0.402930 0.634461 0.114427
v 0.000000 0.634461 0.114427
v -0.402930 1.820618 0.114427
v -0.000000 1.820618 0.114427
v -1.611718 0.597507 0.114427
v -1.611718 0.634461 0.114427
v 0.000000 0.597507 0.210715
v -0.402930 0.597507 0.210715
v -0.402930 0.010970 0.210715
v 0.000000 0.010970 0.210715
v -0.402930 1.674607 0.210715
v -0.000000 1.674607 0.210715
v -0.402930 0.634461 0.210715
v 0.000000 0.634461 0.210715
v -0.402930 1.820618 0.210715
v -0.000000 1.820618 0.210715
v -1.611718 1.674607 -0.000000
v -0.402930 1.674607 -0.000000
v -0.402930 1.674607 0.091100
v -1.611718 1.674607 0.091100
v -1.611718 0.634461 -0.000000
v -0.402930 0.634461 -0.000000
v -1.611718 0.634461 0.091100
v -0.402930 0.634461 0.091100
v -1.611718 1.674607 -0.000000
v -0.402930 1.674607 -0.000000
v -0.402930 0.634461 -0.000000
v -1.611718 0.634461 -0.000000
vt 0.045001 0.931347
vt 0.991606 0.931347
vt 0.062702 0.915687
vt 0.975499 0.915687
vt 0.991606 0.931347
vt 0.045001 0.931347
vt 0.975499 0.070058
vt 0.062702 0.070058
vt 0.045001 0.054398
vt 0.991606 0.054398
vt 0.991606 0.054398
vt 0.045001 0.054398
vt 0.062702 0.915687
vt 0.975499 0.915687
vt 0.975499 0.070058
vt 0.062702 0.070058
vt 0.458412 0.552498
vt 0.458412 0.085209
vt 0.501749 0.085209
vt 0.501749 0.552498
vt 0.260108 0.618094
vt 0.260108 0.150805
vt 0.303444 0.150805
vt 0.303444 0.618094
vt 0.314541 0.150805
vt 0.314541 0.618094
vt 0.303444 0.085209
vt 0.314541 0.085209
vt 0.360346 0.150805
vt 0.360346 0.618094
vt 0.360346 0.085209
vt 0.314541 0.634696
vt 0.360346 0.634696
vt 0.314541 0.898200
vt 0.360346 0.898200
vt 0.303444 0.898200
vt 0.303444 0.634696
vt 0.381143 0.348713
vt 0.381143 0.085209
vt 0.392239 0.085209
vt 0.392239 0.348713
vt 0.438044 0.085209
vt 0.438044 0.348713
vt 0.392239 0.365315
vt 0.438044 0.365315
vt 0.392239 0.832604
vt 0.438044 0.832604
vt 0.381143 0.832604
vt 0.381143 0.365315
vt 0.392239 0.898200
vt 0.438044 0.898200
vt 0.381143 0.898200
vt 0.757834 0.108512
vt 0.757834 0.615765
vt 0.695027 0.615765
vt 0.695027 0.108512
vt 0.963092 0.903526
vt 0.458686 0.903526
vt 0.458686 0.640022
vt 0.963092 0.640022
vt 0.241827 0.347198
vt 0.073692 0.347198
vt 0.073692 0.083694
vt 0.241827 0.083694
vt 0.241827 0.363800
vt 0.073692 0.363800
vt 0.241827 0.831089
vt 0.073692 0.831089
vt 0.073692 0.896685
vt 0.241827 0.896685
vt 0.028479 0.814654
vt 0.008133 0.814654
vt 0.008133 0.143035
vt 0.028479 0.143035
vt 0.614316 0.624530
vt 0.614316 0.083540
vt 0.657652 0.083540
vt 0.657652 0.624530
vt 0.586671 0.084355
vt 0.586671 0.564291
vt 0.551178 0.564291
vt 0.551178 0.084355
vt 0.044091 0.773987
vt 0.044091 0.182584
vt 0.056536 0.182584
vt 0.056536 0.773987
vt 0.528894 0.087056
vt 0.528894 0.566992
vt 0.519805 0.566992
vt 0.519805 0.087056
vn 0.000000 0.000000 1.000000
vn 0.000000 0.000000 1.000000
vn 0.000000 0.000000 1.000000
vn 0.000000 0.000000 1.000000
vn 0.000000 -0.000000 1.000000
vn 0.000000 -0.000000 1.000000
vn 0.000000 -0.000000 1.000000
vn 0.000000 -0.000000 1.000000
vn 0.000000 0.000000 1.000000
vn 0.000000 0.000000 1.000000
vn 0.000000 -0.000000 1.000000
vn 0.000000 -0.000000 1.000000
vn 0.000000 -0.000000 1.000000
vn 0.000000 -0.000000 1.000000
vn 0.000000 0.000000 1.000000
vn 0.000000 0.000000 1.000000
vn 0.000000 0.000000 1.000000
vn 0.000000 0.000000 1.000000
vn 0.000000 -1.000000 0.000000
vn 0.000000 -1.000000 0.000000
vn 0.000000 -1.000000 0.000000
vn 0.000000 -1.000000 0.000000
vn 0.000000 1.000000 0.000000
vn 0.000000 1.000000 0.000000
vn 0.000000 1.000000 0.000000
vn 0.000000 1.000000 0.000000
vn -1.000000 0.000000 0.000000
vn -1.000000 0.000000 0.000000
vn -1.000000 0.000000 0.000000
vn -1.000000 0.000000 0.000000
vn 1.000000 0.000000 0.000000
vn 1.000000 0.000000 0.000000
vn 1.000000 0.000000 0.000000
vn 1.000000 0.000000 0.000000
vn -0.000000 0.000001 1.000000
vn -0.000000 0.000001 1.000000
vn -0.000000 0.000001 1.000000
vn -0.000000 0.000001 1.000000
vn -1.000000 0.000000 0.000000
vn -1.000000 0.000000 0.000000
vn -1.000000 0.000000 0.000000
vn -1.000000 0.000000 0.000000
vn 1.000000 0.000000 0.000000
vn 1.000000 0.000000 0.000000
vn 1.000000 0.000000 0.000000
vn 1.000000 0.000000 0.000000
vn -1.000000 0.000000 0.000000
vn -1.000000 0.000000 0.000000
vn -1.000000 0.000000 0.000000
vn -1.000000 0.000000 0.000000
vn 1.000000 0.000000 0.000000
vn 1.000000 0.000000 0.000000
vn -1.000000 0.000000 0.000000
vn -1.000000 0.000000 0.000000
vn 1.000000 0.000000 0.000000
vn 1.000000 0.000000 0.000000
vn 0.000000 -1.000000 0.000000
vn 0.000000 -1.000000 0.000000
vn 0.000000 -1.000000 0.000000
vn 0.000000 -1.000000 0.000000
vn 0.000000 1.000000 0.000000
vn 0.000000 1.000000 0.000000
vn 0.000000 1.000000 0.000000
vn 0.000000 1.000000 0.000000
vn -1.000000 0.000000 0.000000
vn -1.000000 0.000000 0.000000
vn 1.000000 0.000000 0.000000
vn 1.000000 0.000000 0.000000
vn -1.000000 0.000000 0.000000
vn -1.000000 0.000000 0.000000
vn 1.000000 0.000000 0.000000
vn 1.000000 0.000000 0.000000
vn -1.000000 0.000000 0.000000
vn 1.000000 0.000000 0.000000
vn 0.000000 0.000000 0.000000
vn 0.000000 0.000000 0.000000
vn 0.000000 0.000000 0.000000
vn 0.000000 0.000000 0.000000
vn 0.000000 0.000000 0.000000
vn 0.000000 0.000000 0.000000
vn 0.000000 0.000000 0.000000
vn 0.000000 0.000000 0.000000
vn 0.000000 0.000000 0.000000
vn 0.000000 0.000000 0.000000
vn 0.000000 0.000000 0.000000
vn 0.000000 0.000000 0.000000
vn 0.000000 0.000000 0.000000
vn 0.000000 0.000000 0.000000
vn 0.000000 0.000000 0.000000
vn 0.000000 0.000000 0.000000
vn 0.000000 0.000000 0.000000
vn 0.000000 0.000000 0.000000
vn 0.000000 0.000000 0.000000
vn 0.000000 0.000000 0.000000
vn 0.000000 0.000000 0.000000
vn 0.000000 0.000000 0.000000
vn 0.000000 0.000000 0.000000
vn 0.000000 0.000000 0.000000
s off
g polySurface3
usemtl initialShadingGroup
f 6/53/1 5/54/2 7/55/3 8/56/4
f 16/57/5 17/58/6 9/59/7 11/60/8
s 1
f 30/61/9 31/62/10 32/63/11 33/64/12
f 35/67/13 34/68/14 36/66/15 37/65/16
f 38/69/17 34/68/14 35/67/13 39/70/18
s off
f 40/75/19 41/76/20 42/77/21 43/78/22
f 45/79/23 44/80/24 46/81/25 47/82/26
f 41/17/27 45/18/28 47/19/29 42/20/30
s 3
f 1/21/31 2/22/32 4/23/33 14/24/34
s 1
f 37/65/16 36/66/15 31/62/10 30/61/9
s off
f 29/71/35 28/72/36 19/73/37 24/74/38
s 4
f 16/38/39 11/39/40 20/40/41 19/41/42
s 3
f 13/36/43 15/37/44 18/32/45 21/34/46
s 4
f 8/48/47 12/49/48 24/44/49 22/46/50
s 3
f 14/24/34 4/23/33 23/25/51 25/26/52
s 4
f 6/52/53 8/48/47 22/46/50 26/50/54
s 3
f 4/23/33 3/27/55 27/28/56 23/25/51
s off
f 17/83/57 16/84/58 19/85/59 28/86/60
f 12/87/61 10/88/62 29/89/63 24/90/64
s 4
f 19/41/42 20/40/41 32/42/65 31/43/66
s 3
f 21/34/46 18/32/45 30/33/67 33/35/68
s 4
f 22/46/50 24/44/49 36/45/69 34/47/70
s 3
f 25/26/52 23/25/51 35/29/71 37/30/72
s 4
f 26/50/54 22/46/50 34/47/70 38/51/73
s 3
f 23/25/51 27/28/56 39/31/74 35/29/71
s 4
f 24/44/49 19/41/42 31/43/66 36/45/69
s 3
f 18/32/45 25/26/52 37/30/72 30/33/67
s off
f 48/13/75 49/14/76 41/4/77 40/3/78
f 8/2/79 7/1/80 43/6/81 42/5/82
f 50/15/83 51/16/84 44/8/85 45/7/86
f 10/12/87 12/11/88 47/10/89 46/9/90
f 49/14/91 50/15/92 45/7/93 41/4/94
f 12/11/95 8/2/96 42/5/97 47/10/98
